<svg version="1.1" id="Layer_1" xmlns="http://www.w3.org/2000/svg" xmlns:xlink="http://www.w3.org/1999/xlink" x="0px" y="0px"
	 width="100%" viewBox="350 112 325 325" enable-background="new 350 112 325 325" xml:space="preserve">
<circle cx="512.5" cy="274.5" r="162.5" fill="white" />
<g transform="translate(512.5, 274.5) scale(0.7) translate(-512.5, -274.5)">
<path fill="#000000" opacity="1.000000" stroke="none" 
	d="
M486.059998,256.988953 
	C490.081543,263.742615 493.918121,270.182678 497.752014,276.624390 
	C498.694000,278.207092 499.891937,279.871307 499.010101,281.746765 
	C494.780273,290.742584 490.434204,299.683807 486.248688,308.396149 
	C483.627899,308.313568 483.260681,306.624725 482.546173,305.410980 
	C469.023987,282.440765 455.480225,259.482849 442.101868,236.428940 
	C440.393066,233.484283 438.555786,232.077469 435.054962,232.178574 
	C427.249329,232.404053 419.432678,232.248993 410.031036,232.248993 
	C432.708893,271.183411 454.819336,309.143646 477.676147,348.385284 
	C480.436676,342.824524 482.639069,338.473175 484.768219,334.086273 
	C513.207092,275.490631 541.710022,216.925827 569.949341,158.234161 
	C572.704529,152.507858 575.931885,150.378006 582.395752,150.485626 
	C606.718567,150.890549 631.052551,150.605042 655.382324,150.634796 
	C657.466187,150.637344 659.706238,150.047256 662.385925,152.085190 
	C621.933044,235.841080 581.428101,319.704712 541.036377,403.334045 
	C538.406189,403.226013 538.058838,401.531738 537.338257,400.315887 
	C530.288452,388.420807 523.357605,376.454285 516.200928,364.624207 
	C514.367188,361.593018 514.073059,359.009338 515.741089,355.811310 
	C519.205994,349.168274 522.336914,342.351654 525.654053,335.630524 
	C526.366516,334.187042 526.778625,332.456268 529.014526,331.595459 
	C531.710144,336.017700 534.440735,340.497375 537.852661,346.094879 
	C565.362000,289.336487 592.409851,233.530151 619.602051,177.426132 
	C615.395691,175.456406 611.330627,176.991547 607.555847,176.270325 
	C595.497925,173.966476 589.824219,179.286087 584.604675,190.338837 
	C551.532104,260.371857 517.502991,329.953247 483.745972,399.662567 
	C482.774872,401.667908 482.353638,404.136566 479.219574,405.822083 
	C440.685394,339.705139 402.193695,273.661011 363.793304,207.773636 
	C365.903564,205.482147 368.011749,206.018677 369.940704,206.015961 
	C396.603455,205.978409 423.266968,206.072983 449.928375,205.876129 
	C454.510101,205.842285 457.147369,207.327576 459.424866,211.353973 
	C468.035919,226.577454 477.025879,241.586655 486.059998,256.988953 
z"/>
</g>
</svg>